
<svg xmlns="http://www.w3.org/2000/svg" version="1.1" xmlns:xlink="http://www.w3.org/1999/xlink" preserveAspectRatio="none" x="0px" y="0px" width="1280px" height="720px" viewBox="0 0 1280 720">
<defs>
<g id="Symbol_1_0_Layer0_0_FILL">
<path fill="#020202" stroke="none" d="
M 199.75 163.45
Q 198.7 165.35 197.65 167.3
L 210.4 148.45
Q 204.1 155.25 199.75 163.45
M 134.95 106.55
Q 133 104.45 130.35 102.7 124.1 99.15 117.1 100.5 110.45 101.95 106 106.55 103.8 108.8 102.15 111.8 100.5 114.85 100.3 118.05 99.75 127.9 106.75 134.85 110.15 138.2 114.8 139.5 124.8 142.4 132.95 135.8 137.2 132.35 139.1 127.3 140.75 122.95 140.2 118.2 139.35 111.35 134.95 106.55
M 195.95 61.6
Q 199.2 63.4 201.15 66.35 202.1 67.8 201.7 69.65 201.25 71.85 199.15 72.65 195.1 74.25 191.7 71.05 190.75 70.15 189.7 69.35 182.5 63.55 174.5 59 166.5 54.35 158.65 49.3 152.55 45.35 146.75 40.8 140.25 35.6 132.55 32.15 128.9 30.5 128.7 26.5 128.65 25.3 129.3 24.2 129.9 23.15 130.9 22.4 132.6 21.25 134.7 21.9 131.05 19.95 127.55 17.8 106.4 4.75 81.75 0.45 75.25 -0.65 68.85 0.95 63.35 2.1 58.95 5.55 55.05 8.6 54.3 13.3 53.5 18.55 54.3 23.7 55.6 31.9 57.55 40.45 59.5 49 59.55 52.1 59.55 53.9 59.75 54.45
L 59.7 54.45
Q 56.4 56.55 54.05 60 51.1 64.35 47.95 68.6 46.35 70.75 44.7 72.85 36.4 83.45 28.3 94.65 24.65 99.75 22.35 105.85 22.2 106.2 22.05 106.55 21.85 106.95 21.65 107.3 20.1 109.75 18.6 112.2 16.1 116.25 13.9 120.4 10.7 126.35 8.05 132.7 8 132.8 7.95 132.85 4.35 141.55 2.05 150.6 -0.2 159.55 0 168.55 0 170.05 0.3 171.5 1 175.5 3.55 178.8 3.75 179.1 4 179.4 5.35 180.95 6.65 182.55 8.8 185.2 12.1 185.8 21.05 187.55 29.45 184.65 36.95 182.25 44.1 178.8 45.65 178.05 47.25 177.2 48.15 178 49.05 178.8 52.1 181.45 55.5 183.7 60.35 186.95 64.7 191.05 71.65 197.6 79.8 202.45 88 207.3 95.9 212.7 102.9 217.45 110.4 221.35 116.8 224.6 123.2 227.9 131.8 232.45 141.2 235.55 149.1 238.35 157.55 239.75 163.05 240.6 168.6 240.65 173.65 240.7 177.7 237.65 179.4 236.45 181.05 235.25 185.3 232.1 186.1 227 187.5 217.85 184.15 209.05 183.15 206.35 181.8 203.85 179 198.9 178.45 193.05 175.4 197.65 170.8 195.25 169.85 194.7 169.25 193.75 167.9 191.85 169 189.55 170.35 186.65 172.45 184.2 166.15 177.05 161.85 171.85 157.55 166.6 155.4 163.3 153.2 159.95 152.15 158.55 146.45 151.35 142.25 143.2 141.65 142.1 140.4 141.55 139.5 142.9 140.15 144.85 142.7 152.65 145.55 160.35 148.3 167.85 149.95 175.7 151.85 184.9 147.3 192.95 142.35 201.6 132.25 201.85 120.5 202.15 109.35 198.35 94.35 193.2 80.05 186.4 72.95 183 65.95 179.3 60.55 176.35 55.25 173.2 63.65 166.45 72.5 160.4 82.5 153.55 91.3 145.2 92.8 143.85 94.2 142.15 95.15 141.1 96 139.9
L 96 139.25
Q 94 137.95 91.85 139.3 76.4 148.55 58.65 150.2 53.45 150.6 49.35 148.65 45.45 146.8 42.5 142.85 39.2 138.4 38.95 132.7 38.9 132.5 38.9 132.25 38.6 119 42.95 106.55 44 103.4 45.4 100.25 46.8 97.1 48.05 93.9 53.2 81.15 59.05 68.7 59.05 68.65 59.1 68.6 61.2 64.15 63.9 60 65.65 57.4 68.25 55.2 72.4 62.1 77.15 68.6 78.75 70.8 80.4 72.95 83.7 77.2 86.9 81.7 88.25 83.6 89.65 85.4 92.45 89.15 95.35 92.9 97.65 95.9 101.25 97.2 102.45 94.75 101.5 92.2 100.75 90.1 99.65 88.2 94.4 78.85 91.95 68.6 91.3 66 90.85 63.35 89.65 56.2 92.75 49.75 93.85 47.45 95.6 45.6 99.7 41.25 105.5 39.95 115.75 37.55 125.9 40.65 138.9 44.7 151.7 49.75 157 51.85 162.1 54.2 169.8 57.85 177 62.35 181.25 65.05 185.25 68.2 181.95 70.5 178.6 72.95 178.4 73.05 178.2 73.2 172.9 77.05 167.4 80.55 162.5 83.55 158.15 87.05 152.7 91.55 147.1 95.9 145.7 96.95 144.25 98.2
L 144.25 103.2
Q 154 98.45 164.05 94.65 171.2 91.95 178.6 91.25 182.5 90.85 186.5 91 193 91.4 197 96.9 199.05 99.75 200.05 103.05 201 106.25 201.25 109.6 201.85 118.3 199.35 126.85 194.7 142.65 188.2 157.65 184.5 166.05 179.75 174.15 185.25 166.5 189.85 158.45 194.5 150.25 199.75 142.55 203.35 137.2 207.9 132.65 208.95 128.1 213.4 127.4 217.05 127.7 217.95 131.3 218.4 132.95 217.95 134.5 217.05 137.3 216.05 139.85 219.75 132.85 223.6 125.9 228 118 231.6 109.75 235.3 101.25 237.95 92.5 240.55 83.85 240.85 74.85 241.15 65.25 234.35 58.4 230.15 54.2 224.15 54.15 220.9 54.1 217.65 54.3 212.65 54.8 208.05 56.9 202.25 59.65 195.95 61.6 Z"/>

<path fill="#000000" stroke="none" d="
M 213.4 127.4
Q 208.95 128.1 207.9 132.65 203.35 137.2 199.75 142.55 194.5 150.25 189.85 158.45 185.25 166.5 179.75 174.15
L 172.45 184.2
Q 170.35 186.65 169 189.55 167.9 191.85 169.25 193.75 169.85 194.7 170.8 195.25 175.4 197.65 178.45 193.05 181.95 187.65 186.3 183.4 193.45 176.4 197.65 167.3 198.7 165.35 199.75 163.45 204.1 155.25 210.4 148.45
L 216.05 139.85
Q 217.05 137.3 217.95 134.5 218.4 132.95 217.95 131.3 217.05 127.7 213.4 127.4
M 195.95 61.6
Q 191.65 58.65 187.25 55.45 179.9 50.15 171.8 45.95
L 159.4 37.9 143.25 26.25 134.7 21.9
Q 132.6 21.25 130.9 22.4 129.9 23.15 129.3 24.2 128.65 25.3 128.7 26.5 128.9 30.5 132.55 32.15 140.25 35.6 146.75 40.8 152.55 45.35 158.65 49.3 166.5 54.35 174.5 59 182.5 63.55 189.7 69.35 190.75 70.15 191.7 71.05 195.1 74.25 199.15 72.65 201.25 71.85 201.7 69.65 202.1 67.8 201.15 66.35 199.2 63.4 195.95 61.6 Z"/>
</g>
</defs>

<g transform="matrix( 1, 0, 0, 1, 382.75,229.75) ">
<g transform="matrix( 1, 0, 0, 1, 0,0) ">
<g transform="matrix( 1, 0, 0, 1, 0,0) ">
<use xlink:href="#Symbol_1_0_Layer0_0_FILL"/>
</g>
</g>
</g>
</svg>
